<svg width="44" height="44" viewBox="0 0 44 44" fill="none" xmlns="http://www.w3.org/2000/svg">
<path d="M27.5 11C27.5009 11.4284 27.3517 11.8435 27.0784 12.1734L18.865 22L26.785 31.845C26.9373 32.0326 27.051 32.2483 27.1197 32.48C27.1883 32.7116 27.2105 32.9545 27.1849 33.1947C27.1593 33.4349 27.0866 33.6677 26.9708 33.8797C26.8549 34.0917 26.6984 34.2788 26.51 34.43C26.3225 34.5823 26.1067 34.6961 25.8751 34.7647C25.6435 34.8333 25.4006 34.8555 25.1604 34.8299C24.9201 34.8044 24.6873 34.7316 24.4753 34.6158C24.2633 34.5 24.0763 34.3434 23.925 34.155L15.07 23.155C14.8004 22.827 14.653 22.4155 14.653 21.9909C14.653 21.5662 14.8004 21.1548 15.07 20.8267L24.2367 9.82671C24.3906 9.64107 24.5796 9.48762 24.7929 9.37514C25.0062 9.26266 25.2396 9.19336 25.4797 9.17122C25.7199 9.14909 25.962 9.17454 26.1923 9.24612C26.4225 9.3177 26.6364 9.43401 26.8217 9.58838C27.032 9.75897 27.2019 9.97405 27.3192 10.2181C27.4365 10.4622 27.4982 10.7292 27.5 11Z" fill="#046860"/>
</svg>
