<svg width="44" height="44" viewBox="0 0 44 44" fill="none" xmlns="http://www.w3.org/2000/svg">
<path d="M16.5 33C16.4991 32.5716 16.6483 32.1565 16.9216 31.8266L25.135 22L17.215 12.155C17.0627 11.9674 16.949 11.7517 16.8803 11.52C16.8117 11.2884 16.7896 11.0455 16.8151 10.8053C16.8407 10.5651 16.9134 10.3323 17.0293 10.1203C17.1451 9.90827 17.3017 9.72125 17.49 9.56995C17.6775 9.41767 17.8933 9.30394 18.1249 9.23532C18.3565 9.16669 18.5994 9.14452 18.8397 9.17008C19.0799 9.19563 19.3127 9.26841 19.5247 9.38423C19.7367 9.50005 19.9237 9.65662 20.075 9.84495L28.93 20.845C29.1996 21.173 29.347 21.5845 29.347 22.0091C29.347 22.4338 29.1996 22.8452 28.93 23.1733L19.7633 34.1733C19.6094 34.3589 19.4204 34.5124 19.2071 34.6249C18.9938 34.7373 18.7604 34.8066 18.5203 34.8288C18.2801 34.8509 18.038 34.8255 17.8077 34.7539C17.5775 34.6823 17.3636 34.566 17.1783 34.4116C16.968 34.241 16.7981 34.026 16.6808 33.7819C16.5635 33.5378 16.5018 33.2707 16.5 33Z" fill="#046860"/>
</svg>
