<svg width="25" height="25" viewBox="0 0 25 25" fill="none" xmlns="http://www.w3.org/2000/svg">
<g clip-path="url(#clip0)">
<path d="M23.9085 1.62722C22.7804 1.01977 21.5221 2.19129 20.7845 2.88552C19.0924 4.53432 17.6605 6.44346 16.055 8.17904C14.276 10.0882 12.6272 11.9973 10.8049 13.8631C9.76354 14.9045 8.63542 16.0326 7.94119 17.3343C6.37916 15.8156 5.03409 14.1668 3.29851 12.8218C2.04022 11.8672 -0.042478 11.173 0.000911434 13.4726C0.0876904 16.4666 2.73445 19.6774 4.68698 21.7166C5.51138 22.5844 6.59611 23.4956 7.85441 23.539C9.37304 23.6258 10.9351 21.8034 11.8462 20.8054C13.4517 19.0699 14.7534 17.1173 16.2286 15.3384C18.1377 12.9953 20.0902 10.6956 21.956 8.3092C23.1275 6.83396 26.8156 3.18917 23.9085 1.62722ZM1.90998 13.2991C1.86659 13.2991 1.8232 13.2991 1.73642 13.3424C1.56286 13.2991 1.43269 13.2556 1.25914 13.1688C1.3893 13.082 1.60625 13.1254 1.90998 13.2991Z" fill="#046860"/>
</g>
<defs>
<clipPath id="clip0">
<rect width="25" height="25" fill="white"/>
</clipPath>
</defs>
</svg>
